<svg width="30" height="18" viewBox="0 0 30 18" fill="none" xmlns="http://www.w3.org/2000/svg">
<path d="M0 8.04983C8.70157 8.04983 17.411 8.04983 26.144 8.04983C24.1885 6.11004 22.2565 4.18596 20.3325 2.26973C20.788 1.81423 21.2435 1.35874 21.6832 0.918945C24.3691 3.60481 27.0707 6.30638 29.7801 9.01581C27.0785 11.7095 24.3691 14.4189 21.6675 17.1205C21.2356 16.6886 20.8037 16.2566 20.3482 15.8011C20.3717 15.7854 20.411 15.7776 20.4346 15.7462C22.3351 13.8535 24.2277 11.953 26.1204 10.0603C26.1518 10.0289 26.1675 9.98963 26.2147 9.93465C17.4581 9.93465 8.73298 9.93465 0 9.93465C0 9.30638 0 8.67811 0 8.04983Z" fill="#0047B0"/>
</svg>
