<svg width="15" height="15" viewBox="0 0 15 15" fill="none" xmlns="http://www.w3.org/2000/svg">
<g clip-path="url(#clip0_1147_2028)">
<path d="M0.537109 7.05527C4.62783 7.05527 8.72224 7.05527 12.8277 7.05527C11.9084 6.09744 11.0002 5.14736 10.0957 4.20117C10.3098 3.97625 10.5239 3.75134 10.7307 3.53418C11.9933 4.8604 13.2634 6.19438 14.5371 7.53224C13.2671 8.86234 11.9933 10.2002 10.7233 11.5342C10.5202 11.3209 10.3172 11.1076 10.103 10.8827C10.1141 10.8749 10.1326 10.8711 10.1436 10.8556C11.0371 9.92099 11.9269 8.98256 12.8166 8.04799C12.8314 8.03248 12.8388 8.01309 12.8609 7.98595C8.74439 7.98595 4.64259 7.98595 0.537109 7.98595C0.537109 7.67572 0.537109 7.36549 0.537109 7.05527Z" fill="#0047B0"/>
</g>
<defs>
<clipPath id="clip0_1147_2028">
<rect width="14" height="14" fill="white" transform="translate(0.539062 0.305176)"/>
</clipPath>
</defs>
</svg>
