<svg width="16" height="27" viewBox="0 0 16 27" fill="none" xmlns="http://www.w3.org/2000/svg">
<path d="M13.8517 -9.24138e-08C13.9774 0.0751623 14.1145 0.158676 14.2402 0.233839C14.7202 0.501083 15.2001 0.768326 15.6915 1.03557C15.7943 1.09403 15.8857 1.15249 15.9886 1.21095C15.4858 1.70368 14.983 2.18806 14.4802 2.68079C13.9431 3.19858 13.4175 3.72471 12.8804 4.25085C12.3776 4.74358 11.8634 5.23631 11.3606 5.72904C10.8807 6.18837 10.4121 6.65605 9.93221 7.12372C9.50941 7.54129 9.08661 7.95051 8.6638 8.36808C8.18386 8.84411 7.70393 9.31179 7.21256 9.78781C6.75548 10.2304 6.30982 10.6647 5.85274 11.1073C5.33852 11.6084 4.8243 12.1095 4.31008 12.6189C4.08154 12.8444 3.84157 13.0699 3.61303 13.2954C3.46448 13.4374 3.46448 13.5626 3.61303 13.7046C4.1501 14.2307 4.68717 14.7569 5.23567 15.283C5.72704 15.759 6.21841 16.2267 6.70977 16.7028C7.24684 17.2205 7.77249 17.7467 8.30956 18.2728C8.81236 18.7655 9.32657 19.2583 9.82937 19.751C10.3093 20.2103 10.7778 20.678 11.2578 21.1457C11.6806 21.5633 12.1148 21.9808 12.5376 22.3984C12.9832 22.8327 13.4403 23.2753 13.886 23.7096C14.3088 24.1271 14.7316 24.5363 15.1544 24.9539C15.4401 25.2295 15.7143 25.5051 16 25.7807C15.2572 26.1899 14.5259 26.5908 13.7831 27C13.1775 26.4071 12.5947 25.8308 12.0119 25.2629C11.3606 24.6366 10.7093 24.0102 10.0693 23.3839C9.29229 22.6239 8.51525 21.8639 7.73821 21.1039C7.12115 20.5026 6.50408 19.9097 5.88702 19.3084C5.32709 18.7572 4.76716 18.2144 4.20723 17.6632C3.70444 17.1704 3.19022 16.6777 2.68743 16.185C2.20749 15.7256 1.73898 15.258 1.25904 14.7903C0.859097 14.4061 0.470577 14.0136 0.0706276 13.6294C-0.00936187 13.5543 -0.0322176 13.5042 0.0591997 13.4207C0.447722 13.0449 0.836244 12.6607 1.22477 12.2849C1.67042 11.8506 2.1275 11.408 2.57316 10.9737C2.99596 10.5561 3.41877 10.1469 3.84157 9.72935C4.29865 9.28673 4.75574 8.83576 5.21282 8.39313C5.66991 7.95051 6.11556 7.51624 6.57264 7.07362C7.05258 6.60594 7.53252 6.12991 8.01246 5.66223C8.4924 5.19456 8.97234 4.73523 9.45228 4.26755C9.95507 3.77482 10.4693 3.27374 10.9721 2.78101C11.452 2.31333 11.932 1.85401 12.4119 1.38633C12.8118 1.00217 13.2004 0.618001 13.5889 0.225487C13.646 0.175379 13.6689 0.108568 13.7032 0.0501087C13.7374 4.10407e-07 13.7946 -9.48716e-08 13.8517 -9.24138e-08Z" fill="#0047B0"/>
</svg>
