<svg width="16" height="27" viewBox="0 0 16 27" fill="none" xmlns="http://www.w3.org/2000/svg">
<path d="M2.14829 27C2.02259 26.9248 1.88547 26.8413 1.75977 26.7662C1.27983 26.4989 0.799898 26.2317 0.308533 25.9644C0.205689 25.906 0.114272 25.8475 0.0114278 25.7891C0.51422 25.2963 1.01701 24.8119 1.5198 24.3192C2.05688 23.8014 2.58252 23.2753 3.1196 22.7491C3.62239 22.2564 4.13661 21.7637 4.6394 21.271C5.11934 20.8116 5.58785 20.344 6.06779 19.8763C6.49059 19.4587 6.9134 19.0495 7.3362 18.6319C7.81614 18.1559 8.29607 17.6882 8.78744 17.2122C9.24452 16.7696 9.69018 16.3353 10.1473 15.8927C10.6615 15.3916 11.1757 14.8905 11.6899 14.3811C11.9185 14.1556 12.1584 13.9301 12.387 13.7046C12.5355 13.5626 12.5355 13.4374 12.387 13.2954C11.8499 12.7693 11.3128 12.2431 10.7643 11.717C10.273 11.241 9.78159 10.7733 9.29023 10.2972C8.75316 9.77946 8.22751 9.25333 7.69044 8.72719C7.18764 8.23446 6.67343 7.74173 6.17063 7.24899C5.6907 6.78967 5.22218 6.32199 4.74225 5.85431C4.31944 5.43674 3.88521 5.01917 3.46241 4.60161C3.01675 4.16734 2.55967 3.72471 2.11401 3.29044C1.69121 2.87287 1.26841 2.46366 0.845605 2.04609C0.559927 1.77049 0.285678 1.4949 3.12392e-07 1.2193C0.742762 0.810083 1.4741 0.409218 2.21686 2.60159e-08C2.82249 0.592947 3.40527 1.16919 3.98806 1.73709C4.6394 2.36344 5.29075 2.98979 5.93066 3.61615C6.70771 4.37612 7.48475 5.1361 8.26179 5.89607C8.87885 6.49737 9.49592 7.09032 10.113 7.69162C10.6729 8.24281 11.2328 8.78565 11.7928 9.33684C12.2956 9.82957 12.8098 10.3223 13.3126 10.815C13.7925 11.2744 14.261 11.742 14.741 12.2097C15.1409 12.5939 15.5294 12.9864 15.9294 13.3706C16.0094 13.4457 16.0322 13.4958 15.9408 13.5793C15.5523 13.9551 15.1638 14.3393 14.7752 14.7151C14.3296 15.1494 13.8725 15.592 13.4268 16.0263C13.004 16.4439 12.5812 16.8531 12.1584 17.2706C11.7013 17.7133 11.2443 18.1642 10.7872 18.6069C10.3301 19.0495 9.88444 19.4838 9.42736 19.9264C8.94742 20.3941 8.46748 20.8701 7.98754 21.3378C7.5076 21.8054 7.02766 22.2648 6.54773 22.7324C6.04493 23.2252 5.53072 23.7263 5.02792 24.219C4.54798 24.6867 4.06805 25.146 3.58811 25.6137C3.18816 25.9978 2.79964 26.382 2.41112 26.7745C2.35398 26.8246 2.33113 26.8914 2.29685 26.9499C2.26257 27 2.20543 27 2.14829 27Z" fill="white"/>
</svg>
