<svg width="24" height="23" viewBox="0 0 24 23" fill="none" xmlns="http://www.w3.org/2000/svg">
<path d="M9.61669 12.3998C9.21795 12.7819 9.20448 13.4149 9.58661 13.8137C9.96873 14.2124 10.6018 14.2259 11.0005 13.8438L9.61669 12.3998ZM15.8467 9.19953C16.2454 8.8174 16.2589 8.18438 15.8767 7.78563C15.4946 7.38689 14.8616 7.37342 14.4628 7.75555L15.8467 9.19953ZM11.0005 13.8438L15.8467 9.19953L14.4628 7.75555L9.61669 12.3998L11.0005 13.8438Z" fill="#03AE33"/>
<path d="M13.7302 19.9022L12.8436 20.3648L13.7302 19.9022ZM15.5804 19.7555L14.6282 19.4498L15.5804 19.7555ZM9.93283 13.0526L9.50071 13.9544L9.93283 13.0526ZM10.38 13.4812L11.2666 13.0186L10.38 13.4812ZM3.38572 8.06895L3.66855 9.02812L3.38572 8.06895ZM3.2326 9.84207L2.80048 10.7439H2.80048L3.2326 9.84207ZM19.1948 3.40729L19.4777 4.36646L19.1948 3.40729ZM20.4447 4.60508L21.3968 4.91078L20.4447 4.60508ZM18.912 2.44812L3.10289 7.10978L3.66855 9.02812L19.4777 4.36646L18.912 2.44812ZM2.80048 10.7439L9.50071 13.9544L10.3649 12.1508L3.66472 8.94025L2.80048 10.7439ZM9.49345 13.9437L12.8436 20.3648L14.6167 19.4397L11.2666 13.0186L9.49345 13.9437ZM16.5325 20.0612L21.3968 4.91078L19.4926 4.29938L14.6282 19.4498L16.5325 20.0612ZM12.8436 20.3648C13.6482 21.907 15.9894 21.7525 16.5325 20.0612L14.6282 19.4498C14.6278 19.4512 14.6278 19.4506 14.6288 19.4487C14.6298 19.4467 14.6314 19.4441 14.6335 19.4412C14.638 19.4351 14.6426 19.4309 14.6457 19.4286C14.6485 19.4266 14.6486 19.4271 14.645 19.4284C14.6413 19.4298 14.6354 19.4313 14.628 19.4318C14.6206 19.4324 14.614 19.4319 14.6092 19.431C14.6045 19.4301 14.6031 19.4292 14.6045 19.4299C14.6062 19.4308 14.6098 19.433 14.6136 19.4367C14.6154 19.4385 14.6167 19.44 14.6174 19.441C14.6181 19.4419 14.6178 19.4417 14.6167 19.4397L12.8436 20.3648ZM9.50071 13.9544C9.50466 13.9563 9.49945 13.9552 9.49345 13.9437L11.2666 13.0186C11.0671 12.6362 10.748 12.3343 10.3649 12.1508L9.50071 13.9544ZM3.10289 7.10978C1.3837 7.61672 1.14698 9.95158 2.80048 10.7439L3.66472 8.94025C3.65392 8.93508 3.6529 8.93277 3.65686 8.93649C3.66068 8.94008 3.66577 8.94614 3.67025 8.95425C3.67905 8.97019 3.68021 8.98377 3.67951 8.9919C3.67881 9.00001 3.67561 9.0108 3.66681 9.02185C3.66228 9.02755 3.65782 9.03123 3.65525 9.03295C3.65253 9.03477 3.65565 9.03193 3.66855 9.02812L3.10289 7.10978ZM19.4777 4.36646C19.4867 4.36379 19.4918 4.36355 19.4935 4.36353C19.4954 4.3635 19.4965 4.36371 19.4974 4.36392C19.4999 4.36458 19.5027 4.36625 19.5041 4.36759C19.5055 4.36894 19.499 4.36344 19.4941 4.3462C19.4916 4.33731 19.4902 4.32717 19.4904 4.31695C19.4906 4.30648 19.4923 4.30018 19.4926 4.29938L21.3968 4.91078C21.9071 3.32153 20.3578 2.0218 18.912 2.44812L19.4777 4.36646Z" fill="#03AE33"/>
</svg>
