<svg width="20" height="20" viewBox="0 0 20 20" fill="none" xmlns="http://www.w3.org/2000/svg">
<path d="M10.8571 4.28571C10.8571 3.81233 10.4734 3.42857 10 3.42857C9.52661 3.42857 9.14286 3.81233 9.14286 4.28571V10C9.14286 10.2955 9.2951 10.5702 9.54572 10.7269L12.9743 12.8697C13.3757 13.1206 13.9045 12.9986 14.1554 12.5971C14.4063 12.1957 14.2843 11.6669 13.8829 11.416L10.8571 9.52493V4.28571Z" fill="#03AE33"/>
<path fill-rule="evenodd" clip-rule="evenodd" d="M10 0C4.47715 0 0 4.47715 0 10C0 15.5228 4.47715 20 10 20C15.5228 20 20 15.5228 20 10C20 4.47715 15.5228 0 10 0ZM1.71429 10C1.71429 5.42393 5.42393 1.71429 10 1.71429C14.5761 1.71429 18.2857 5.42393 18.2857 10C18.2857 14.5761 14.5761 18.2857 10 18.2857C5.42393 18.2857 1.71429 14.5761 1.71429 10Z" fill="#03AE33"/>
</svg>
