<svg width="40" height="40" viewBox="0 0 40 40" fill="none" xmlns="http://www.w3.org/2000/svg">
<path d="M20.7681 0.106481C21.1521 0.159673 21.5361 0.191587 21.9201 0.255417C26.7308 0.957545 30.3148 3.46818 32.7255 7.64903C33.8028 9.52137 34.3575 11.5746 34.4748 13.7341C34.6668 17.2341 33.7175 20.3937 31.6481 23.2235C31.4241 23.5214 31.1895 23.8192 30.9335 24.0958C30.7415 24.298 30.7415 24.4575 30.8801 24.6916C32.8215 28.0214 34.7415 31.3512 36.6721 34.681C36.8215 34.9469 36.9601 35.1916 36.7575 35.5001C36.4481 35.9895 36.1815 36.0958 35.6161 35.8724C34.4001 35.3937 33.1841 34.915 31.9681 34.4256C31.6481 34.298 31.3175 34.1703 30.9335 34.0214C30.8588 34.4895 30.7841 34.9256 30.7201 35.3618C30.5495 36.5214 30.3895 37.6916 30.2295 38.8512C30.2081 38.9895 30.1868 39.1384 30.1548 39.2661C29.9948 39.8086 29.3548 39.9682 28.9601 39.5533C28.8428 39.4363 28.7575 39.2873 28.6828 39.1384C26.7521 35.8086 24.8108 32.4788 22.8908 29.1384C22.7521 28.8937 22.6241 28.798 22.3255 28.8512C20.7148 29.1384 19.1041 29.1278 17.4935 28.8512C17.2161 28.798 17.1095 28.9044 16.9815 29.1171C15.0508 32.4469 13.1201 35.7767 11.1895 39.1171C10.9761 39.4788 10.7735 39.8724 10.2615 39.798C9.71745 39.7129 9.67479 39.2661 9.62145 38.8299C9.39745 37.2448 9.16279 35.6597 8.92812 34.032C8.76812 34.0958 8.61879 34.1384 8.49079 34.1916C7.10412 34.7448 5.72812 35.2873 4.34145 35.8405C4.22412 35.8831 4.09612 35.9363 3.96812 35.9575C3.41345 36.0746 2.98679 35.6278 3.14679 35.0852C3.20012 34.915 3.28545 34.7554 3.38145 34.5958C5.28012 31.3193 7.16812 28.0427 9.07746 24.7661C9.26945 24.4363 9.22679 24.2448 8.99212 23.9682C6.25079 20.7341 5.06679 16.9895 5.62145 12.8086C6.34679 7.37244 9.34412 3.53201 14.3255 1.25542C15.7655 0.595843 17.3121 0.244779 18.9015 0.149034C18.9975 0.138396 19.1041 0.106482 19.2001 0.0852051C19.7335 0.106482 20.2455 0.106481 20.7681 0.106481ZM33.0455 14.532C33.0135 7.35116 27.2321 1.55329 20.0108 1.54265C12.7895 1.53201 6.95479 7.42563 6.96545 14.6171C6.97612 21.8831 12.7468 27.6065 20.0108 27.6278C27.1681 27.649 33.0775 21.681 33.0455 14.532ZM34.4215 33.7873C34.4428 33.7661 34.4535 33.7448 34.4748 33.7235C32.8641 30.9575 31.2641 28.1809 29.6855 25.4575C28.8001 26.0533 27.9788 26.681 27.0935 27.1703C26.1975 27.6703 25.2268 28.0427 24.2668 28.4895C25.8561 31.2554 27.4668 34.0427 29.0668 36.8405C29.3335 35.5639 29.5255 34.3299 29.7068 33.0852C29.8135 32.3831 30.2188 32.1384 30.8908 32.4044C31.8508 32.7767 32.8108 33.1597 33.7815 33.5427C33.9948 33.6278 34.2081 33.7129 34.4215 33.7873ZM10.3575 25.3831C8.73612 28.1916 7.12545 30.9576 5.47212 33.8193C5.69612 33.7448 5.81346 33.7022 5.93079 33.6597C6.99746 33.2341 8.06412 32.8086 9.14145 32.3937C9.74945 32.1597 10.1761 32.3937 10.2721 33.0214C10.4108 33.8618 10.5281 34.7022 10.6561 35.5427C10.7201 35.9682 10.7948 36.3831 10.8588 36.8086C10.8908 36.8086 10.9121 36.8086 10.9441 36.8086C12.5441 34.0214 14.1548 31.2341 15.7761 28.4044C13.7388 27.7767 11.9681 26.7873 10.3575 25.3831Z" fill="#03AE33"/>
<path d="M20.0107 25.8617C13.76 25.8724 8.68271 20.8192 8.69338 14.5745C8.70404 8.34047 13.728 3.31919 19.9894 3.29792C26.2294 3.27664 31.3387 8.38303 31.3067 14.5852C31.2747 20.8405 26.2614 25.8511 20.0107 25.8617ZM10.112 14.5958C10.1227 20 14.56 24.4256 19.9894 24.4469C25.4614 24.4681 29.8774 20.0426 29.8667 14.5426C29.856 9.11707 25.4294 4.70217 20 4.69154C14.6027 4.6809 10.112 9.19154 10.112 14.5958Z" fill="#03AE33"/>
<path d="M20.0961 18.8298C19.3068 19.4043 18.5281 19.9788 17.7388 20.5426C16.8748 21.149 15.8614 20.9256 15.3494 20.0213C15.1361 19.649 15.0934 19.2447 15.2321 18.8298C15.4988 18.0107 15.7548 17.1809 16.0428 16.3724C16.1388 16.1064 16.1068 15.9681 15.8614 15.7979C15.1468 15.3086 14.4321 14.8085 13.7494 14.2873C13.2054 13.8724 13.0028 13.2979 13.1521 12.6383C13.2908 12.032 13.6854 11.649 14.2828 11.4788C14.4321 11.4362 14.5921 11.4362 14.7414 11.4256C15.5841 11.4256 16.4268 11.4149 17.2694 11.4256C17.5361 11.4362 17.6534 11.3511 17.7281 11.0958C17.9734 10.2554 18.2401 9.41493 18.5281 8.58515C18.8481 7.68089 19.7441 7.28728 20.6401 7.6277C21.1628 7.82983 21.4508 8.25536 21.6214 8.766C21.8774 9.54259 22.1228 10.3085 22.3574 11.0958C22.4321 11.3405 22.5388 11.4468 22.8161 11.4362C23.6801 11.4149 24.5548 11.4256 25.4188 11.4362C26.1654 11.4468 26.7308 11.883 26.9654 12.6171C27.2001 13.3511 27.0294 13.883 26.3681 14.3724C25.6854 14.8724 25.0028 15.3617 24.3094 15.8298C24.1068 15.9681 24.0748 16.0851 24.1494 16.3085C24.4268 17.0958 24.6721 17.9043 24.9494 18.6915C25.1841 19.3937 25.0028 20.0851 24.4374 20.532C23.8934 20.9681 23.1788 21.0107 22.5601 20.5851C21.8668 20.1171 21.1948 19.6064 20.5121 19.1171C20.3734 19.032 20.2454 18.9362 20.0961 18.8298ZM16.4268 12.8192C15.9254 12.8192 15.4134 12.8086 14.9121 12.8298C14.7628 12.8405 14.6134 12.9256 14.4748 12.9788C14.5601 13.0958 14.6241 13.2447 14.7308 13.3298C15.4881 13.9149 16.2454 14.5 17.0134 15.0745C17.5254 15.4681 17.5681 15.5958 17.3761 16.1915C17.0774 17.1277 16.7681 18.0532 16.4694 18.9894C16.4268 19.1171 16.4694 19.2766 16.4694 19.4149C16.6081 19.3724 16.7681 19.3724 16.8854 19.2873C17.6961 18.7128 18.4961 18.1171 19.3068 17.532C19.8081 17.1703 20.0641 17.1703 20.5654 17.532C21.3334 18.0851 22.0908 18.649 22.8588 19.1915C23.0188 19.2979 23.2108 19.3405 23.3921 19.4149C23.3814 19.2234 23.4134 19.0213 23.3601 18.8511C23.0828 17.9681 22.7841 17.0851 22.4961 16.2022C22.3041 15.6171 22.3681 15.4149 22.8801 15.0426C23.6908 14.4468 24.5121 13.8617 25.3228 13.2554C25.4294 13.1809 25.4934 13.0532 25.5894 12.9468C25.4508 12.8937 25.3228 12.8085 25.1841 12.8085C24.2134 12.7979 23.2428 12.7979 22.2721 12.7979C21.5788 12.7979 21.3761 12.649 21.1734 12C20.8854 11.1064 20.5974 10.2022 20.2988 9.30855C20.2454 9.15961 20.1281 9.04259 20.0428 8.9043C19.9468 9.04259 19.8188 9.17025 19.7654 9.31919C19.4561 10.2234 19.1788 11.1383 18.8801 12.0426C18.6881 12.6383 18.4854 12.7873 17.8668 12.7873C17.3868 12.8192 16.9068 12.8192 16.4268 12.8192Z" fill="#03AE33"/>
</svg>
