<svg width="40" height="33" viewBox="0 0 40 33" fill="none" xmlns="http://www.w3.org/2000/svg">
<path d="M0 10.6605C2.48141 7.59202 4.95499 4.52352 7.4364 1.45503C7.87476 0.914913 8.18004 0.867947 8.77495 1.24368C9.99609 2.01863 11.2016 2.80141 12.4305 3.55288C12.7984 3.77988 13.2133 3.96775 13.6282 4.08517C14.8258 4.43742 16.0235 4.75053 17.229 5.06364C17.4168 5.11061 17.6438 5.11061 17.8317 5.05581C19.092 4.70356 20.3523 4.33566 21.6125 3.98341C21.8552 3.91296 22.1213 3.87382 22.3796 3.87382C24.047 3.86599 25.7065 3.87382 27.3738 3.85816C27.593 3.85816 27.8356 3.78771 28.0235 3.67029C29.3151 2.87186 30.591 2.04212 31.8748 1.22803C32.4618 0.852292 32.7906 0.907086 33.2133 1.45503C35.3659 4.24172 37.5108 7.03624 39.6556 9.82294C40.0783 10.3787 40.0391 10.731 39.5069 11.1928C38.364 12.1791 37.2211 13.1576 36.0861 14.1439C35.9452 14.2691 35.82 14.4257 35.7417 14.5979C34.9746 16.1869 34.2153 17.776 33.4638 19.3807C33.4012 19.5059 33.3855 19.7094 33.4481 19.8347C34.3562 21.7525 33.2446 23.7173 31.1155 23.913C31.0763 23.913 31.045 23.9364 31.0059 23.9443C30.8258 25.7838 29.636 26.6527 28.1722 26.7544C28.1409 27.4903 27.8982 28.1713 27.3659 28.7114C26.8258 29.2515 26.1683 29.5177 25.3777 29.5411C25.2916 30.7544 24.7515 31.6938 23.593 32.1478C22.4344 32.6018 21.4012 32.2887 20.4775 31.4198C19.6791 32.3435 18.7241 32.8758 17.4795 32.5783C16.2427 32.2809 15.5695 31.4433 15.3346 30.2065C15.0841 30.1908 14.8258 30.1987 14.5753 30.1674C13.2838 30.003 12.3209 29.0245 12.18 27.7329C12.1566 27.5294 12.1487 27.3807 11.8669 27.3494C10.3327 27.1771 9.34638 26.0265 9.36986 24.4844C9.36986 24.3983 9.36986 24.3043 9.36986 24.2026C9.15851 24.1478 8.95499 24.1086 8.75929 24.046C7.02153 23.4511 6.34834 21.3298 7.4364 19.8268C7.60861 19.5842 7.59295 19.4511 7.42857 19.2319C6.3953 17.8621 5.39335 16.4766 4.35225 15.1067C4.10959 14.7936 3.79648 14.5274 3.49119 14.2691C2.48924 13.4002 1.47945 12.5392 0.477495 11.6703C0.313111 11.5294 0.180039 11.3572 0.0313113 11.2006C1.18976e-07 11.0284 0 10.8484 0 10.6605ZM19.4599 26.1752C19.4834 26.1908 19.499 26.2143 19.5225 26.2222C21.2133 26.504 22.2857 28.3748 21.5499 30.0578C21.5186 30.1282 21.5342 30.2691 21.589 30.3239C21.9335 30.684 22.3483 30.8719 22.8493 30.7388C23.7495 30.504 24.047 29.4315 23.3894 28.727C22.818 28.1087 22.1996 27.5216 21.6125 26.9188C21.2994 26.5979 21.2368 26.2613 21.409 25.9325C21.6595 25.455 22.2701 25.3768 22.6928 25.7916C23.2877 26.3709 23.8669 26.9736 24.4462 27.5607C24.7828 27.9051 25.182 28.046 25.6517 27.9286C26.5675 27.6938 26.8571 26.6057 26.1683 25.8856C25.1663 24.8445 24.1409 23.8347 23.1311 22.8092C23.0059 22.6762 22.8728 22.5587 22.7554 22.41C22.5049 22.0891 22.5284 21.6586 22.8023 21.3768C23.0841 21.0871 23.5303 21.0636 23.8669 21.3298C23.9687 21.4081 24.0548 21.5098 24.1487 21.5959C25.1742 22.6292 26.1996 23.6625 27.2172 24.7036C27.5695 25.0636 27.9765 25.2515 28.4775 25.1106C29.4168 24.8523 29.6595 23.7642 28.9472 23.0362C27.3425 21.4081 25.7299 19.7877 24.1252 18.1595C24.0235 18.0578 23.8748 17.956 23.8513 17.8386C23.8043 17.5724 23.726 17.2437 23.8356 17.048C23.953 16.8445 24.2818 16.6801 24.5245 16.6722C24.7358 16.6644 25.0098 16.8445 25.182 17.0167C26.8102 18.637 28.4227 20.2809 30.0431 21.9169C30.5988 22.4805 31.3503 22.4961 31.8434 21.9873C32.3288 21.4863 32.2975 20.7662 31.7495 20.2182C28.7436 17.2124 25.7456 14.2065 22.7319 11.2085C22.5988 11.0754 22.3796 10.9893 22.1918 10.9736C21.2603 10.8875 20.3288 10.8484 19.3973 10.7623C19.1233 10.7388 18.9824 10.8092 18.8493 11.0519C18.2701 12.1087 17.6751 13.1654 17.0646 14.2065C16.4149 15.3102 15.1859 15.8268 13.9961 15.5216C12.1957 15.0597 11.3581 13.095 12.2818 11.4355C13.182 9.81511 14.1135 8.20258 15.0215 6.59006C15.0998 6.45699 15.1703 6.32392 15.2564 6.15953C14.5832 5.97166 13.9413 5.80728 13.3151 5.61159C13.0568 5.53331 12.9002 5.5881 12.728 5.80728C11.2407 7.63898 9.72994 9.46286 8.23483 11.2946C7.40509 12.3043 6.57534 13.322 5.72994 14.3552C6.74755 15.7173 7.74168 17.0715 8.75147 18.4178C10.2857 17.1419 12.7984 17.6351 13.3699 20.046C14.2153 19.9208 15.0137 20.0539 15.7025 20.6175C16.3914 21.1811 16.6888 21.9247 16.728 22.7858C18.6223 22.9267 19.7182 24.3826 19.4599 26.1752ZM32.0783 18.5353C32.2192 18.2691 32.274 18.1674 32.3209 18.0656C32.9237 16.8053 33.5186 15.5294 34.1448 14.2769C34.2701 14.0186 34.2231 13.8621 34.0587 13.6586C31.9609 11.0049 29.8787 8.35131 27.7965 5.68986C27.6399 5.49417 27.4912 5.42372 27.2407 5.42372C25.6908 5.43155 24.1487 5.42372 22.5988 5.43155C22.3405 5.43155 22.0822 5.46286 21.8317 5.53331C20.1957 5.99515 18.5675 6.48047 16.9315 6.94231C16.6419 7.02059 16.4697 7.16931 16.3288 7.42763C15.9452 8.13213 15.5382 8.82881 15.1389 9.53331C14.6301 10.4257 14.1213 11.3102 13.6282 12.2104C13.2446 12.9149 13.5186 13.682 14.2231 13.956C14.8023 14.183 15.3973 13.9482 15.7417 13.3454C16.4384 12.1321 17.135 10.911 17.816 9.68204C18.0274 9.29847 18.3249 9.12626 18.7632 9.15757C20.0705 9.25933 21.3777 9.34544 22.6928 9.42372C23.0685 9.4472 23.3503 9.59593 23.6086 9.86207C26.3327 12.594 29.0646 15.3259 31.7887 18.0578C31.8982 18.183 31.9609 18.3396 32.0783 18.5353ZM8.34442 2.81707C6.1683 5.50982 4.02348 8.17127 1.87084 10.8405C2.80235 11.6468 3.71037 12.4218 4.62622 13.2124C6.92759 10.4022 9.20548 7.63116 11.5068 4.82881C10.4423 4.15562 9.41683 3.50591 8.34442 2.81707ZM38.0665 10.3552C36.1252 7.83468 34.1996 5.33761 32.274 2.83272C31.2016 3.51374 30.1683 4.17127 29.1115 4.84446C31.1937 7.49025 33.2446 10.0969 35.3112 12.727C36.2427 11.9286 37.135 11.1615 38.0665 10.3552ZM12.2114 25.8151C12.3288 25.7681 12.6106 25.7447 12.7671 25.5881C13.4951 24.9071 14.2153 24.2104 14.8885 23.4668C15.3033 23.0128 15.1937 22.2848 14.7476 21.8777C14.317 21.4785 13.6204 21.4394 13.182 21.8464C12.4931 22.4961 11.82 23.1693 11.1703 23.8582C10.8337 24.2182 10.8023 24.6879 11.0137 25.1341C11.2329 25.5724 11.6008 25.7916 12.2114 25.8151ZM13.6204 27.4041C13.7143 27.9521 13.9413 28.32 14.4031 28.5314C14.8728 28.7427 15.3346 28.6801 15.7025 28.32C16.3444 27.7094 16.9706 27.091 17.5812 26.4492C18.0744 25.9325 18.0509 25.2045 17.5734 24.7349C17.0959 24.2652 16.3836 24.2809 15.8591 24.7897C15.2564 25.3767 14.6458 25.9638 14.0744 26.5901C13.863 26.8014 13.7691 27.1223 13.6204 27.4041ZM20.2035 28.7427C20.1957 28.4687 20 28.1165 19.5851 27.8895C19.1546 27.6625 18.7084 27.6703 18.3483 27.9756C17.9022 28.3513 17.4873 28.7662 17.1115 29.2045C16.7906 29.5803 16.7906 30.0499 17.0333 30.4805C17.2603 30.9032 17.6438 31.1067 18.1213 31.091C18.865 31.0676 20.2035 29.682 20.2035 28.7427ZM10.591 19.2398C10.3562 19.3337 10.0744 19.3807 9.89432 19.5294C9.4638 19.8973 9.05675 20.3043 8.68102 20.7349C8.30528 21.1732 8.36791 21.8464 8.76712 22.2613C9.15851 22.6762 9.83953 22.7936 10.2857 22.4257C10.7554 22.0421 11.1859 21.6038 11.5695 21.1341C11.8669 20.7662 11.8591 20.3122 11.6321 19.8895C11.4129 19.5059 11.0607 19.3102 10.591 19.2398Z" fill="#03AE33"/>
</svg>
