<svg width="40" height="40" viewBox="0 0 40 40" fill="none" xmlns="http://www.w3.org/2000/svg">
<path d="M21.2086 0C21.9493 0.101562 22.6979 0.203125 23.4386 0.304687C23.579 0.328125 23.7193 0.351562 23.8597 0.382812C24.3509 0.492187 24.6316 0.875 24.5458 1.30469C24.4522 1.74219 24.0546 1.96875 23.5634 1.92188C22.3158 1.78906 21.0526 1.54688 19.8051 1.58594C12.499 1.82031 6.93957 5.13281 3.61793 11.6406C0.218324 18.3047 0.935673 24.8438 5.18519 30.9922C5.25536 31.1016 5.34113 31.1953 5.38012 31.2422C5.96491 31.1328 6.50292 30.9609 7.04873 30.9531C8.51462 30.9219 9.79337 31.9375 10.1832 33.3594C10.5653 34.7578 9.97271 36.25 8.74074 37.0156C7.50098 37.7891 5.88694 37.625 4.80312 36.625C3.73489 35.6406 3.4308 34.0625 4.10136 32.7656C4.25731 32.4609 4.22612 32.2812 4.03119 32.0234C1.69201 28.9063 0.366472 25.3984 0.0623784 21.5078C0.0545811 21.3906 0.0233918 21.2812 0 21.1719C0 20.3672 0 19.5547 0 18.75C0.124756 17.8672 0.226121 16.9766 0.389864 16.0938C1.87135 8.125 8.50682 1.625 16.4834 0.304687C17.2242 0.179687 17.9727 0.101562 18.7135 0C19.5478 0 20.3743 0 21.2086 0ZM7.00975 32.5C6.06628 32.5078 5.30994 33.2812 5.30994 34.2188C5.30994 35.1562 6.08187 35.9297 7.01754 35.9375C7.96881 35.9375 8.74074 35.1562 8.73294 34.1953C8.72515 33.25 7.95322 32.4922 7.00975 32.5Z" fill="#03AE33"/>
<path d="M18.7137 39.9999C17.9729 39.8984 17.2244 39.7968 16.4837 39.6953C16.3589 39.6796 16.2263 39.6484 16.1016 39.6249C15.5948 39.5078 15.3453 39.164 15.4232 38.7031C15.5012 38.2578 15.8911 38.039 16.3901 38.0937C17.6766 38.2265 18.971 38.4296 20.2653 38.4218C27.5168 38.3906 34.3394 33.7421 36.9827 26.9687C39.47 20.5859 38.6435 14.5781 34.7137 8.98432C34.6591 8.90619 34.6045 8.83588 34.5499 8.76557C34.5343 8.74213 34.5109 8.72651 34.5421 8.75776C33.9573 8.86713 33.4193 9.03901 32.8813 9.04682C31.4232 9.07807 30.1289 8.05463 29.7468 6.64838C29.3647 5.24994 29.9573 3.74994 31.1893 2.99213C32.4603 2.21869 34.0353 2.37494 35.1191 3.37494C36.1874 4.35932 36.4915 5.94526 35.8209 7.23432C35.6649 7.53901 35.7039 7.71869 35.8989 7.97651C38.2302 11.0937 39.5558 14.6015 39.8599 18.4843C39.8677 18.6015 39.8989 18.7109 39.9223 18.8281C39.9223 19.6328 39.9223 20.4453 39.9223 21.2499C39.8989 21.3515 39.8755 21.4531 39.8599 21.5546C39.7273 22.4765 39.6416 23.414 39.4466 24.3281C37.8482 32.0781 31.2283 38.4296 23.4388 39.6953C22.6981 39.8124 21.9495 39.8984 21.2088 39.9999C20.3745 39.9999 19.548 39.9999 18.7137 39.9999ZM32.8891 7.49994C33.8326 7.50776 34.6045 6.74994 34.6201 5.80463C34.6357 4.85151 33.8482 4.06244 32.8969 4.06244C31.9612 4.07026 31.1971 4.83588 31.1893 5.78119C31.1893 6.72651 31.9456 7.49213 32.8891 7.49994Z" fill="#03AE33"/>
<path d="M30.7135 26.25C30.963 26.4922 31.2983 26.7969 31.6179 27.1172C32.0702 27.5703 32.0702 27.9766 31.6101 28.4375C30.5419 29.5156 29.4659 30.5938 28.3821 31.6719C27.9142 32.1328 27.5166 32.125 27.0409 31.6563C26.7447 31.3672 26.4484 31.0703 26.1521 30.7813C26.1365 30.7656 26.1053 30.7578 26.1677 30.7891C25.2086 31.1641 24.2963 31.5156 23.3996 31.8828C23.2983 31.9297 23.1813 32.0938 23.1735 32.2031C23.1423 32.6016 23.1735 33.0078 23.1579 33.4141C23.1423 33.9141 22.8538 34.2266 22.3548 34.2266C20.7563 34.2344 19.1579 34.2344 17.5595 34.2266C17.0448 34.2266 16.7563 33.9141 16.7408 33.3906C16.733 33 16.733 32.6094 16.7408 32.2188C16.7486 32.0234 16.6862 31.9297 16.4834 31.8594C15.5868 31.5234 14.6979 31.1641 13.7076 30.7734C13.4737 31.0234 13.1696 31.3594 12.8499 31.6797C12.3977 32.1328 11.9844 32.1328 11.5322 31.6875C10.4484 30.6016 9.36454 29.5156 8.28071 28.4297C7.84407 27.9922 7.85187 27.5781 8.28851 27.1406C8.6082 26.8203 8.94348 26.5156 9.20079 26.2734C8.81093 25.2578 8.46005 24.3359 8.09358 23.4297C8.05459 23.3359 7.89085 23.2422 7.78169 23.2422C7.39183 23.2188 7.00196 23.2422 6.6121 23.2344C6.06629 23.2266 5.7622 22.9297 5.7622 22.3828C5.7544 20.8047 5.7544 19.2344 5.7622 17.6563C5.7622 17.1016 6.05069 16.8125 6.6043 16.7969C6.99416 16.7891 7.38403 16.8125 7.77389 16.7812C7.89085 16.7734 8.05459 16.6641 8.10138 16.5625C8.46785 15.6641 8.81873 14.7578 9.21639 13.7422C8.96687 13.5078 8.62379 13.2109 8.30411 12.8906C7.86746 12.4531 7.86746 12.0391 8.29631 11.6016C9.38013 10.5156 10.464 9.42969 11.5478 8.34375C12 7.89063 12.4055 7.89844 12.8655 8.34375C13.1228 8.60156 13.3723 8.875 13.6452 9.10938C13.731 9.17969 13.9181 9.21094 14.0273 9.17187C14.8616 8.84375 15.6881 8.5 16.5068 8.14062C16.616 8.09375 16.733 7.9375 16.7408 7.82812C16.7719 7.42969 16.7486 7.02344 16.7563 6.61719C16.7719 6.11719 17.0604 5.8125 17.5595 5.80469C19.1579 5.79688 20.7563 5.79688 22.3548 5.80469C22.8694 5.80469 23.1579 6.11719 23.1735 6.64062C23.1813 7.03125 23.1579 7.42188 23.1813 7.8125C23.1891 7.92188 23.2749 8.08594 23.3684 8.125C24.2807 8.49219 25.2008 8.84375 26.2222 9.23438C26.4562 8.98438 26.7602 8.64062 27.0799 8.32031C27.5166 7.88281 27.922 7.89063 28.3665 8.32813C29.4581 9.41406 30.5419 10.4922 31.6179 11.5859C32.0624 12.0312 32.0546 12.4453 31.6024 12.9063C31.2905 13.2188 30.963 13.5078 30.7135 13.7422C31.1033 14.7578 31.4542 15.6797 31.8207 16.5859C31.8597 16.6797 32.0234 16.7734 32.1326 16.7812C32.5224 16.8047 32.9123 16.7812 33.3022 16.7891C33.8558 16.7969 34.1521 17.0859 34.1521 17.6328C34.1599 19.2109 34.1599 20.7813 34.1521 22.3594C34.1521 22.9219 33.848 23.2109 33.2788 23.2188C32.8889 23.2266 32.499 23.2031 32.1092 23.2344C32.0078 23.2422 31.8597 23.3516 31.8207 23.4453C31.4464 24.3359 31.1033 25.25 30.7135 26.25ZM32.577 18.3438C32.3431 18.3438 32.1482 18.3438 31.9532 18.3438C31.7583 18.3438 31.5634 18.3516 31.3684 18.3438C30.8538 18.3281 30.5965 18.1328 30.4795 17.6406C30.191 16.4141 29.7232 15.2656 29.0526 14.2031C28.7953 13.7969 28.8421 13.4609 29.1852 13.1094C29.4659 12.8203 29.77 12.5625 30.0507 12.2969C29.232 11.4766 28.4678 10.7031 27.6413 9.86719C27.3996 10.1406 27.1423 10.4375 26.8694 10.7109C26.4795 11.1094 26.1599 11.1484 25.6842 10.8437C24.655 10.1953 23.54 9.74219 22.3548 9.46094C21.809 9.32813 21.614 9.08594 21.6063 8.53125C21.5985 8.14844 21.6063 7.75781 21.6063 7.35937C20.4912 7.35937 19.4152 7.35937 18.3548 7.35937C18.3392 7.39844 18.3158 7.42188 18.3158 7.44531C18.308 7.8125 18.308 8.17188 18.308 8.53906C18.3002 9.07813 18.1053 9.33594 17.5907 9.46094C16.3821 9.75 15.2515 10.2109 14.191 10.875C13.7544 11.1484 13.4269 11.1094 13.0682 10.7422C12.7875 10.4531 12.5302 10.1484 12.2963 9.89063C11.462 10.7344 10.6979 11.5078 9.89475 12.3125C10.1443 12.5469 10.4406 12.8047 10.7135 13.0859C11.0877 13.4688 11.1267 13.7891 10.846 14.2422C10.1988 15.2812 9.7466 16.3906 9.4581 17.5703C9.31775 18.1562 9.08383 18.3359 8.46785 18.3438C8.09358 18.3438 7.72711 18.3438 7.35284 18.3438C7.35284 19.4766 7.35284 20.5469 7.35284 21.6563C7.77389 21.6563 8.17155 21.6484 8.57701 21.6563C9.06824 21.6641 9.33335 21.8594 9.44251 22.3359C9.73101 23.5625 10.1988 24.7109 10.8616 25.7813C11.1267 26.2109 11.0877 26.5469 10.7291 26.9063C10.4484 27.1875 10.1365 27.4531 9.85576 27.7109C10.6901 28.5391 11.462 29.3047 12.2807 30.1172C12.5224 29.8594 12.7797 29.5625 13.0526 29.2891C13.4503 28.8906 13.7544 28.8594 14.2378 29.1563C15.2593 29.7891 16.3509 30.25 17.5283 30.5234C18.1287 30.6641 18.308 30.9141 18.3158 31.5469C18.3158 31.9141 18.3158 32.2891 18.3158 32.6484C19.4542 32.6484 20.5224 32.6484 21.5907 32.6484C21.6062 32.5938 21.614 32.5703 21.614 32.5469C21.614 32.1953 21.614 31.8438 21.6218 31.4922C21.6296 30.9062 21.809 30.6719 22.3782 30.5312C23.5634 30.25 24.6706 29.7891 25.7076 29.1406C26.1755 28.8438 26.4873 28.8828 26.885 29.2891C27.1579 29.5625 27.4074 29.8594 27.6413 30.1172C28.4678 29.2891 29.2398 28.5234 30.0507 27.7031C29.7778 27.4453 29.4815 27.1797 29.193 26.8906C28.8343 26.5313 28.7953 26.2031 29.0682 25.7656C29.7232 24.7109 30.191 23.5703 30.4795 22.3594C30.5965 21.8594 30.8538 21.6641 31.3606 21.6563C31.7583 21.6484 32.156 21.6563 32.577 21.6563C32.577 20.5391 32.577 19.4609 32.577 18.3438Z" fill="#03AE33"/>
<path d="M19.961 13.5391C23.501 13.5391 26.4094 16.4453 26.4094 19.9922C26.4094 23.5391 23.5088 26.4531 19.961 26.4531C16.4211 26.4531 13.5127 23.5469 13.5127 20C13.5127 16.4531 16.4133 13.5469 19.961 13.5391ZM24.8499 19.9844C24.8421 17.2969 22.6277 15.0938 19.9532 15.1016C17.271 15.1094 15.0721 17.3281 15.0799 20.0078C15.0877 22.6953 17.3022 24.8984 19.9766 24.8906C22.6511 24.8828 24.8577 22.6641 24.8499 19.9844Z" fill="#03AE33"/>
</svg>
