<svg width="40" height="40" viewBox="0 0 40 40" fill="none" xmlns="http://www.w3.org/2000/svg">
<path d="M39.3616 19.3261C39.3616 22.3417 39.3505 25.3462 39.3727 28.3618C39.3727 28.8403 39.2059 29.1296 38.7832 29.3411C32.7095 32.3678 26.6359 35.4057 20.5622 38.4547C20.2062 38.6327 19.9059 38.6327 19.5388 38.4547C13.4429 35.3946 7.3359 32.3456 1.22888 29.2966C0.861791 29.1074 0.706055 28.8515 0.706055 28.4397C0.717179 22.3417 0.717179 16.2549 0.706055 10.1568C0.706055 9.73399 0.86179 9.46693 1.25113 9.27776C7.34702 6.23988 13.4318 3.19088 19.5166 0.141879C19.8837 -0.0472929 20.2062 -0.0472929 20.5733 0.141879C26.6247 3.17975 32.6873 6.2065 38.7498 9.23325C39.1947 9.4558 39.3727 9.74512 39.3727 10.2459C39.3505 13.2837 39.3616 16.3105 39.3616 19.3261ZM20.7068 36.8634C20.8626 36.7967 20.9627 36.7633 21.0517 36.7076C26.6025 33.9257 32.1644 31.1549 37.7153 28.3841C37.9711 28.2617 38.0378 28.1059 38.0267 27.8388C38.0156 22.3974 38.0156 16.9559 38.0156 11.5144C38.0156 11.3809 38.0156 11.2474 38.0156 11.0693C37.8376 11.1472 37.7153 11.2029 37.5929 11.2696C32.0866 14.0182 26.5914 16.7779 21.085 19.5153C20.7958 19.6599 20.6846 19.8046 20.6846 20.1384C20.6957 25.5688 20.6957 30.9991 20.6957 36.4183C20.7068 36.5519 20.7068 36.6854 20.7068 36.8634ZM14.0436 17.056C14.0436 17.2675 14.0436 17.4121 14.0436 17.5568C14.0436 19.404 14.0436 21.2512 14.0436 23.0984C14.0436 23.4545 13.988 23.7661 13.6209 23.9219C13.2427 24.0777 12.9868 23.8774 12.7421 23.6214C12.4863 23.3544 12.2193 23.0873 11.9523 22.8202C11.4517 22.3195 11.029 21.6407 10.4172 21.3847C9.81653 21.1288 9.02673 21.318 8.32592 21.3068C8.3148 21.3068 8.30368 21.3068 8.28143 21.3068C7.59175 21.3068 7.38039 21.0954 7.38039 20.4166C7.38039 18.3024 7.36927 16.1992 7.39152 14.0849C7.39152 13.8067 7.31365 13.6732 7.0578 13.5508C5.50045 12.783 3.95423 12.0041 2.40801 11.2362C2.3079 11.1806 2.19666 11.1472 2.05205 11.0916C2.05205 11.2251 2.05205 11.3141 2.05205 11.392C2.05205 16.8891 2.05205 22.3862 2.04092 27.8833C2.04092 28.1727 2.15216 28.2839 2.38576 28.4063C7.91434 31.166 13.4429 33.9257 18.9715 36.6965C19.0939 36.7522 19.2162 36.8078 19.3608 36.8634C19.372 36.7522 19.372 36.6854 19.372 36.6186C19.372 31.0993 19.372 25.5688 19.3831 20.0494C19.3831 19.8046 19.2941 19.6822 19.0827 19.5709C17.8035 18.9366 16.5242 18.3024 15.245 17.6569C14.8668 17.4566 14.4774 17.2675 14.0436 17.056ZM37.1924 9.9788C37.0033 9.87865 36.8921 9.81189 36.792 9.75625C35.1456 8.9328 33.4882 8.10934 31.853 7.27476C31.586 7.14123 31.3858 7.15236 31.1299 7.28589C27.4924 9.23325 23.8438 11.1695 20.1951 13.1057C18.4375 14.0404 16.68 14.9752 14.8668 15.9433C15.0336 16.0323 15.1449 16.0991 15.2672 16.1547C16.7578 16.9003 18.2484 17.6347 19.7279 18.3914C19.9838 18.5249 20.1729 18.5027 20.4176 18.3802C25.2454 15.9544 30.0843 13.5397 34.9232 11.125C35.6351 10.7577 36.3804 10.3905 37.1924 9.9788ZM24.6669 3.70276C23.2097 2.97945 21.8081 2.28953 20.4176 1.56623C20.1395 1.42157 19.9282 1.44383 19.6501 1.57736C14.2105 4.30366 8.78201 7.01883 3.34242 9.73399C3.20893 9.80076 3.08657 9.87865 2.90859 9.9788C3.08657 10.079 3.22006 10.1568 3.34242 10.2236C4.76628 10.9358 6.20126 11.6368 7.614 12.3713C7.92546 12.5271 8.14794 12.5159 8.44829 12.349C13.721 9.5337 18.9937 6.74063 24.2665 3.93644C24.3888 3.86967 24.5001 3.79178 24.6669 3.70276ZM29.973 6.37341C29.8173 6.28439 29.7061 6.21763 29.5837 6.16199C28.5714 5.65011 27.548 5.16049 26.5357 4.62636C26.2576 4.4817 26.0463 4.4817 25.7682 4.62636C21.5077 6.90755 17.225 9.17761 12.9535 11.4477C11.8188 12.0486 10.6842 12.6495 9.50506 13.2837C9.68304 13.3728 9.79428 13.4395 9.91664 13.5063C10.9623 14.0293 12.0079 14.5412 13.0313 15.0753C13.2761 15.1977 13.454 15.1755 13.6765 15.0642C18.9826 12.2377 24.2998 9.41129 29.6059 6.58484C29.7283 6.51807 29.8284 6.45131 29.973 6.37341ZM8.72639 19.9715C9.34932 19.9715 9.92777 19.9381 10.5062 19.9826C10.7843 20.0049 11.0958 20.1273 11.3071 20.3165C11.7743 20.7282 12.1748 21.1956 12.6197 21.6518C12.6754 21.5628 12.6976 21.5405 12.6976 21.5183C12.6976 19.8825 12.7087 18.2467 12.6976 16.6109C12.6976 16.4997 12.5753 16.3327 12.4751 16.2771C12.0413 16.0323 11.5852 15.8209 11.1403 15.5983C10.3505 15.2088 9.56068 14.8082 8.72639 14.3965C8.72639 16.2771 8.72639 18.0909 8.72639 19.9715Z" fill="#03AE33"/>
</svg>
