<svg width="19" height="18" viewBox="0 0 19 18" fill="none" xmlns="http://www.w3.org/2000/svg">
<path d="M11.5 7V11H7.5V7H11.5ZM13.5 7H18.5V11H13.5V7ZM11.5 18H7.5V13H11.5V18ZM13.5 18V13H18.5V17C18.5 17.2652 18.3946 17.5196 18.2071 17.7071C18.0196 17.8946 17.7652 18 17.5 18H13.5ZM11.5 0V5H7.5V0H11.5ZM13.5 0H17.5C17.7652 0 18.0196 0.105357 18.2071 0.292893C18.3946 0.48043 18.5 0.734784 18.5 1V5H13.5V0ZM5.5 7V11H0.5V7H5.5ZM5.5 18H1.5C1.23478 18 0.98043 17.8946 0.792893 17.7071C0.605357 17.5196 0.5 17.2652 0.5 17V13H5.5V18ZM5.5 0V5H0.5V1C0.5 0.734784 0.605357 0.48043 0.792893 0.292893C0.98043 0.105357 1.23478 0 1.5 0H5.5Z" fill="#0047B0"/>
</svg>
