<svg width="20" height="20" viewBox="0 0 20 20" fill="none" xmlns="http://www.w3.org/2000/svg">
<path d="M7.50289 2.25722L6.57441 2.62861V2.62861L7.50289 2.25722ZM8.55715 4.89288L9.48563 4.52149V4.52149L8.55715 4.89288ZM8.23664 6.91603L9.00486 7.55621V7.55621L8.23664 6.91603ZM7.66925 7.5969L8.43747 8.23708L7.66925 7.5969ZM7.79148 10.2915L7.08437 10.9986L7.79148 10.2915ZM9.70852 12.2085L10.4156 11.5014L9.70852 12.2085ZM12.4031 12.3307L11.7629 11.5625L12.4031 12.3307ZM13.084 11.7634L13.7242 12.5316L13.7242 12.5316L13.084 11.7634ZM15.1071 11.4428L14.7357 12.3713L15.1071 11.4428ZM17.7428 12.4971L18.1142 11.5686L17.7428 12.4971ZM2.89474 2H5.64593V0H2.89474V2ZM6.57441 2.62861L7.62867 5.26427L9.48563 4.52149L8.43136 1.88583L6.57441 2.62861ZM7.46842 6.27585L6.90103 6.95672L8.43747 8.23708L9.00486 7.55621L7.46842 6.27585ZM7.08437 10.9986L9.00141 12.9156L10.4156 11.5014L8.49859 9.58437L7.08437 10.9986ZM13.0433 13.099L13.7242 12.5316L12.4438 10.9951L11.7629 11.5625L13.0433 13.099ZM14.7357 12.3713L17.3714 13.4256L18.1142 11.5686L15.4785 10.5144L14.7357 12.3713ZM18 14.3541V17.1053H20V14.3541H18ZM17.1053 18C8.76286 18 2 11.2371 2 2.89474H0C0 12.3417 7.65829 20 17.1053 20V18ZM18 17.1053C18 17.5994 17.5994 18 17.1053 18V20C18.704 20 20 18.704 20 17.1053H18ZM17.3714 13.4256C17.751 13.5775 18 13.9452 18 14.3541H20C20 13.1274 19.2531 12.0242 18.1142 11.5686L17.3714 13.4256ZM13.7242 12.5316C14.0063 12.2964 14.3947 12.2349 14.7357 12.3713L15.4785 10.5144C14.4554 10.1051 13.2903 10.2897 12.4438 10.9951L13.7242 12.5316ZM9.00141 12.9156C10.0986 14.0128 11.8513 14.0923 13.0433 13.099L11.7629 11.5625C11.3656 11.8936 10.7813 11.8671 10.4156 11.5014L9.00141 12.9156ZM6.90103 6.95672C5.90771 8.1487 5.98722 9.90143 7.08437 10.9986L8.49859 9.58437C8.13287 9.21866 8.10637 8.63441 8.43747 8.23708L6.90103 6.95672ZM7.62867 5.26427C7.76509 5.6053 7.70356 5.99367 7.46842 6.27585L9.00486 7.55621C9.71029 6.7097 9.89487 5.54459 9.48563 4.52149L7.62867 5.26427ZM5.64593 2C6.05484 2 6.42255 2.24895 6.57441 2.62861L8.43136 1.88583C7.97577 0.746853 6.87265 0 5.64593 0V2ZM2.89474 0C1.29602 0 0 1.29602 0 2.89474H2C2 2.40059 2.40059 2 2.89474 2V0Z" fill="#0047B0"/>
</svg>
