<svg width="22" height="13" viewBox="0 0 22 13" fill="none" xmlns="http://www.w3.org/2000/svg">
<path d="M21.1816 11.9997C21.1816 12.1244 21.1816 12.2437 21.1816 12.3684C21.0413 12.6937 20.777 12.813 20.4426 12.8238C20.3617 12.8238 20.2808 12.8293 20.1999 12.8293C19.5957 12.8293 18.9862 12.8022 18.382 12.8401C17.7671 12.8781 17.3032 12.6449 16.9041 12.2003C16.4348 11.6852 15.9763 11.1592 15.4638 10.6875C14.9838 10.2375 14.4498 9.84164 13.9211 9.44582C13.673 9.25605 13.3709 9.1693 13.0419 9.19641C12.7722 9.21809 12.6481 9.31569 12.6104 9.5868C12.5834 9.75489 12.5726 9.92298 12.5672 10.0911C12.5618 10.7417 12.5726 11.3924 12.5672 12.043C12.5618 12.4172 12.4216 12.5961 12.0656 12.7154C11.9685 12.7479 11.8714 12.7696 11.7689 12.7859C10.9652 12.8889 10.1668 12.8455 9.38471 12.6395C7.50217 12.1569 5.97565 11.0996 4.7404 9.62476C3.24084 7.83002 2.04336 5.84008 1.15873 3.67121C0.872839 2.97717 0.694836 2.23433 0.462891 1.5186C0.462891 1.39389 0.462891 1.27461 0.462891 1.1499C0.565378 0.819142 0.808111 0.699854 1.12636 0.699854C1.8222 0.694431 2.51264 0.699855 3.20848 0.694433C3.88813 0.68901 4.20099 0.623944 4.557 1.63789C4.99392 2.88499 5.52254 4.09414 6.21838 5.21653C6.60136 5.84008 7.04907 6.4311 7.50217 7.01127C7.6586 7.21189 7.89054 7.36913 8.1171 7.48842C8.37062 7.62398 8.58099 7.49927 8.64032 7.21731C8.66729 7.09802 8.68347 6.97874 8.68347 6.85403C8.68887 5.70995 8.69426 4.56587 8.68887 3.41636C8.68348 2.80366 8.50008 2.24518 8.09552 1.77345C8.02 1.68669 7.94988 1.59451 7.89054 1.49691C7.68017 1.14447 7.87436 0.748653 8.27892 0.699854C8.35983 0.689009 8.44074 0.694433 8.52165 0.694433C9.30919 0.694433 10.0967 0.694433 10.8897 0.694433C11.2672 0.694433 11.6448 0.689009 12.0224 0.699854C12.3137 0.705276 12.4755 0.840831 12.5295 1.12821C12.5618 1.29087 12.5672 1.46438 12.5672 1.63247C12.5726 3.02055 12.5672 4.40863 12.5726 5.80212C12.5726 5.94852 12.5834 6.10034 12.6158 6.24674C12.6859 6.55038 12.9016 6.66425 13.1767 6.53412C13.3548 6.44736 13.5435 6.33892 13.673 6.19252C14.0991 5.71537 14.5307 5.23822 14.9082 4.71769C15.6634 3.67121 16.2514 2.52713 16.7692 1.35051C16.9472 0.943852 17.2331 0.705276 17.6808 0.699854C18.4953 0.694431 19.3098 0.689009 20.1297 0.699854C20.6637 0.705276 20.8849 0.998074 20.7069 1.49691C20.5289 1.99575 20.3293 2.50544 20.0542 2.95006C19.3044 4.16462 18.5223 5.35208 17.7347 6.54496C17.341 7.1414 17.3464 7.33118 17.8426 7.84628C17.8642 7.86797 17.8912 7.89508 17.9128 7.91677C18.3605 8.37766 18.819 8.8277 19.2451 9.30485C19.9895 10.129 20.7662 10.9369 21.1816 11.9997Z" fill="#0047B0"/>
</svg>
