<svg width="23" height="17" viewBox="0 0 23 17" fill="none" xmlns="http://www.w3.org/2000/svg">
<path d="M0.46875 9.45179C0.46875 8.69179 0.46875 7.93751 0.46875 7.17751C0.480149 7.10894 0.497246 7.04036 0.502945 6.97179C0.56564 6.21179 0.611238 5.44608 0.691031 4.68608C0.753725 4.10322 0.827817 3.52036 0.970304 2.95465C1.24388 1.87465 2.20139 1.08036 3.36979 0.971793C4.79466 0.840364 6.21953 0.726079 7.6501 0.668937C10.5568 0.560365 13.4636 0.577507 16.3646 0.71465C17.4817 0.766079 18.5931 0.868936 19.7045 1.01179C20.8102 1.16036 21.7677 2.09179 21.9216 3.11465C22.0641 4.09751 22.1667 5.08036 22.2807 6.06894C22.3206 6.40608 22.332 6.74894 22.3605 7.09179C22.3605 7.94894 22.3605 8.80608 22.3605 9.66322C22.3491 9.73751 22.3377 9.81751 22.3263 9.89179C22.2066 11.0404 22.0983 12.1889 21.9729 13.3375C21.819 14.7604 20.6791 15.6461 19.6247 15.7546C18.5475 15.8689 17.4703 15.9946 16.3931 16.0289C14.4496 16.0975 12.5061 16.1318 10.5625 16.1261C8.16875 16.1204 5.77497 16.0861 3.39828 15.7832C2.1216 15.6232 1.10709 14.7489 0.924709 13.5604C0.770823 12.5661 0.67393 11.5661 0.55994 10.5661C0.508645 10.2061 0.497247 9.82894 0.46875 9.45179ZM9.23455 11.7146C11.1496 10.6004 13.0304 9.50322 14.9454 8.38893C13.0304 7.26893 11.1439 6.16608 9.23455 5.05179C9.23455 7.29179 9.23455 9.48608 9.23455 11.7146Z" fill="#0047B0"/>
</svg>
